<svg width="25" height="25" viewBox="0 0 25 25" fill="none" xmlns="http://www.w3.org/2000/svg">
<path d="M23.1729 6.50858C22.4029 6.85858 21.5729 7.08858 20.7129 7.19858C21.5929 6.66858 22.2729 5.82858 22.5929 4.81858C21.7629 5.31858 20.8429 5.66858 19.8729 5.86858C19.0829 5.00858 17.9729 4.50858 16.7129 4.50858C14.3629 4.50858 12.4429 6.42858 12.4429 8.79858C12.4429 9.13858 12.4829 9.46858 12.5529 9.77858C8.99293 9.59858 5.82293 7.88858 3.71293 5.29858C3.34293 5.92858 3.13293 6.66858 3.13293 7.44858C3.13293 8.93858 3.88293 10.2586 5.04293 11.0086C4.33293 11.0086 3.67293 10.8086 3.09293 10.5086C3.09293 10.5086 3.09293 10.5086 3.09293 10.5386C3.09293 12.6186 4.57293 14.3586 6.53293 14.7486C6.17293 14.8486 5.79293 14.8986 5.40293 14.8986C5.13293 14.8986 4.86293 14.8686 4.60293 14.8186C5.14293 16.5086 6.71293 17.7686 8.60293 17.7986C7.14293 18.9586 5.29293 19.6386 3.27293 19.6386C2.93293 19.6386 2.59293 19.6186 2.25293 19.5786C4.15293 20.7986 6.41293 21.5086 8.83293 21.5086C16.7129 21.5086 21.0429 14.9686 21.0429 9.29858C21.0429 9.10858 21.0429 8.92857 21.0329 8.73857C21.8729 8.13857 22.5929 7.37858 23.1729 6.50858Z" fill="black"/>
</svg>
