<svg width="25" height="25" viewBox="0 0 25 25" fill="none" xmlns="http://www.w3.org/2000/svg">
<path d="M22.9425 6.94727C22.1725 7.29727 21.3425 7.52727 20.4825 7.63727C21.3625 7.10727 22.0425 6.26727 22.3625 5.25727C21.5325 5.75727 20.6125 6.10727 19.6425 6.30727C18.8525 5.44727 17.7425 4.94727 16.4825 4.94727C14.1325 4.94727 12.2125 6.86727 12.2125 9.23727C12.2125 9.57727 12.2525 9.90727 12.3225 10.2173C8.76249 10.0373 5.59249 8.32727 3.48249 5.73727C3.11249 6.36727 2.90249 7.10727 2.90249 7.88727C2.90249 9.37727 3.65249 10.6973 4.81249 11.4473C4.10249 11.4473 3.44249 11.2473 2.86249 10.9473C2.86249 10.9473 2.86249 10.9473 2.86249 10.9773C2.86249 13.0573 4.34249 14.7973 6.30249 15.1873C5.94249 15.2873 5.56249 15.3373 5.17249 15.3373C4.90249 15.3373 4.63249 15.3073 4.37249 15.2573C4.91249 16.9473 6.48249 18.2073 8.37249 18.2373C6.91249 19.3973 5.06249 20.0773 3.04249 20.0773C2.70249 20.0773 2.36249 20.0573 2.02249 20.0173C3.92249 21.2373 6.18249 21.9473 8.60249 21.9473C16.4825 21.9473 20.8125 15.4073 20.8125 9.73727C20.8125 9.54727 20.8125 9.36727 20.8025 9.17727C21.6425 8.57727 22.3625 7.81727 22.9425 6.94727Z" fill="white"/>
</svg>
