<svg width="25" height="25" viewBox="0 0 25 25" fill="none" xmlns="http://www.w3.org/2000/svg">
<path d="M10.9625 15.5093L16.1525 12.5093L10.9625 9.50928V15.5093ZM22.5225 7.67928C22.6525 8.14928 22.7425 8.77928 22.8025 9.57928C22.8725 10.3793 22.9025 11.0693 22.9025 11.6693L22.9625 12.5093C22.9625 14.6993 22.8025 16.3093 22.5225 17.3393C22.2725 18.2393 21.6925 18.8193 20.7925 19.0693C20.3225 19.1993 19.4625 19.2893 18.1425 19.3493C16.8425 19.4193 15.6525 19.4493 14.5525 19.4493L12.9625 19.5093C8.77252 19.5093 6.16252 19.3493 5.13252 19.0693C4.23252 18.8193 3.65252 18.2393 3.40252 17.3393C3.27252 16.8693 3.18252 16.2393 3.12252 15.4393C3.05252 14.6393 3.02252 13.9493 3.02252 13.3493L2.96252 12.5093C2.96252 10.3193 3.12252 8.70928 3.40252 7.67928C3.65252 6.77928 4.23252 6.19928 5.13252 5.94928C5.60252 5.81928 6.46252 5.72928 7.78252 5.66928C9.08252 5.59928 10.2725 5.56928 11.3725 5.56928L12.9625 5.50928C17.1525 5.50928 19.7625 5.66928 20.7925 5.94928C21.6925 6.19928 22.2725 6.77928 22.5225 7.67928Z" fill="white"/>
</svg>
